Sora-Thin.ufo
<glyph name="comma" format="2">
  <advance width="250"/>
  <unicode hex="002C"/>
  <outline>
    <contour>
      <point x="81" y="-146" type="line"/>
      <point x="158" y="60" type="line"/>
      <point x="129" y="70" type="line"/>
      <point x="54" y="-136" type="line"/>
    </contour>
  </outline>
</glyph>
<glyph name="two" format="2">
  <advance width="606"/>
  <unicode hex="0032"/>
  <outline>
    <contour>
      <point x="92" y="0" type="line"/>
      <point x="548" y="0" type="line"/>
      <point x="548" y="30" type="line"/>
      <point x="111" y="30" type="line"/>
      <point x="124" y="14" type="line"/>
      <point x="124" y="98" type="line" smooth="yes"/>
      <point x="124" y="158"/>
      <point x="144" y="194"/>
      <point x="226" y="233" type="curve" smooth="yes"/>
      <point x="383" y="308" type="line" smooth="yes"/>
      <point x="466" y="348"/>
      <point x="530" y="413"/>
      <point x="530" y="515" type="curve" smooth="yes"/>
      <point x="530" y="527" type="line" smooth="yes"/>
      <point x="530" y="656"/>
      <point x="444" y="748"/>
      <point x="309" y="748" type="curve" smooth="yes"/>
      <point x="176" y="748"/>
      <point x="86" y="656"/>
      <point x="86" y="521" type="curve"/>
      <point x="118" y="521" type="line"/>
      <point x="118" y="644"/>
      <point x="196" y="718"/>
      <point x="309" y="718" type="curve" smooth="yes"/>
      <point x="424" y="718"/>
      <point x="500" y="644"/>
      <point x="500" y="521" type="curve" smooth="yes"/>
      <point x="500" y="425"/>
      <point x="447" y="369"/>
      <point x="374" y="334" type="curve" smooth="yes"/>
      <point x="218" y="260" type="line" smooth="yes"/>
      <point x="119" y="213"/>
      <point x="92" y="171"/>
      <point x="92" y="94" type="curve" smooth="yes"/>
    </contour>
  </outline>
</glyph>
<glyph name="equal" format="2">
  <advance width="584"/>
  <unicode hex="003D"/>
  <outline>
    <contour>
      <point x="86" y="399" type="line"/>
      <point x="498" y="399" type="line"/>
      <point x="498" y="427" type="line"/>
      <point x="86" y="427" type="line"/>
    </contour>
    <contour>
      <point x="86" y="242" type="line"/>
      <point x="498" y="242" type="line"/>
      <point x="498" y="270" type="line"/>
      <point x="86" y="270" type="line"/>
    </contour>
  </outline>
</glyph>
<glyph name="E" format="2">
  <advance width="608"/>
  <unicode hex="0045"/>
  <anchor x="333" y="0" name="bottom"/>
  <anchor x="534" y="10" name="ogonek"/>
  <anchor x="324" y="730" name="top"/>
  <outline>
    <contour>
      <point x="130" y="0" type="line"/>
      <point x="162" y="0" type="line"/>
      <point x="162" y="730" type="line"/>
      <point x="130" y="730" type="line"/>
    </contour>
    <contour>
      <point x="147" y="0" type="line"/>
      <point x="534" y="0" type="line"/>
      <point x="534" y="30" type="line"/>
      <point x="147" y="30" type="line"/>
    </contour>
    <contour>
      <point x="147" y="356" type="line"/>
      <point x="495" y="356" type="line"/>
      <point x="495" y="386" type="line"/>
      <point x="147" y="386" type="line"/>
    </contour>
    <contour>
      <point x="147" y="700" type="line"/>
      <point x="521" y="700" type="line"/>
      <point x="521" y="730" type="line"/>
      <point x="147" y="730" type="line"/>
    </contour>
  </outline>
</glyph>
<glyph name="L" format="2">
  <advance width="530"/>
  <unicode hex="004C"/>
  <anchor x="324" y="-1" name="bottom"/>
  <anchor x="147" y="365" name="center"/>
  <anchor x="146" y="730" name="top"/>
  <anchor x="244" y="541" name="topright"/>
  <outline>
    <contour>
      <point x="130" y="0" type="line"/>
      <point x="162" y="0" type="line"/>
      <point x="162" y="730" type="line"/>
      <point x="130" y="730" type="line"/>
    </contour>
    <contour>
      <point x="143" y="0" type="line"/>
      <point x="504" y="0" type="line"/>
      <point x="504" y="30" type="line"/>
      <point x="143" y="30" type="line"/>
    </contour>
  </outline>
</glyph>
<glyph name="M" format="2">
  <advance width="874"/>
  <unicode hex="004D"/>
  <outline>
    <contour>
      <point x="130" y="0" type="line"/>
      <point x="160" y="0" type="line"/>
      <point x="160" y="690" type="line"/>
      <point x="153" y="690" type="line"/>
      <point x="406" y="160" type="line"/>
      <point x="464" y="160" type="line"/>
      <point x="717" y="690" type="line"/>
      <point x="712" y="690" type="line"/>
      <point x="712" y="0" type="line"/>
      <point x="744" y="0" type="line"/>
      <point x="744" y="730" type="line"/>
      <point x="704" y="730" type="line"/>
      <point x="446" y="189" type="line"/>
      <point x="424" y="189" type="line"/>
      <point x="166" y="730" type="line"/>
      <point x="130" y="730" type="line"/>
    </contour>
  </outline>
</glyph>
<glyph name="R" format="2">
  <advance width="662"/>
  <unicode hex="0052"/>
  <anchor x="361" y="0" name="bottom"/>
  <anchor x="318" y="730" name="top"/>
  <outline>
    <contour>
      <point x="130" y="0" type="line"/>
      <point x="162" y="0" type="line"/>
      <point x="162" y="732" type="line"/>
      <point x="130" y="732" type="line"/>
    </contour>
    <contour>
      <point x="588" y="0" type="line"/>
      <point x="628" y="0" type="line"/>
      <point x="362" y="318" type="line"/>
      <point x="323" y="318" type="line"/>
    </contour>
    <contour>
      <point x="143" y="302" type="line"/>
      <point x="337" y="302" type="line" smooth="yes"/>
      <point x="498" y="302"/>
      <point x="562" y="400"/>
      <point x="562" y="512" type="curve" smooth="yes"/>
      <point x="562" y="522" type="line" smooth="yes"/>
      <point x="562" y="634"/>
      <point x="498" y="732"/>
      <point x="337" y="732" type="curve" smooth="yes"/>
      <point x="143" y="732" type="line"/>
      <point x="143" y="702" type="line"/>
      <point x="339" y="702" type="line" smooth="yes"/>
      <point x="480" y="702"/>
      <point x="530" y="619"/>
      <point x="530" y="517" type="curve" smooth="yes"/>
      <point x="530" y="415"/>
      <point x="480" y="332"/>
      <point x="339" y="332" type="curve" smooth="yes"/>
      <point x="143" y="332" type="line"/>
    </contour>
  </outline>
</glyph>
<glyph name="U" format="2">
  <advance width="806"/>
  <unicode hex="0055"/>
  <anchor x="403" y="0" name="bottom"/>
  <anchor x="497" y="5" name="ogonek"/>
  <anchor x="403" y="730" name="top"/>
  <outline>
    <contour>
      <point x="403" y="-16" type="curve" smooth="yes"/>
      <point x="604" y="-16"/>
      <point x="690" y="109"/>
      <point x="690" y="275" type="curve" smooth="yes"/>
      <point x="690" y="730" type="line"/>
      <point x="658" y="730" type="line"/>
      <point x="658" y="271" type="line" smooth="yes"/>
      <point x="658" y="117"/>
      <point x="580" y="14"/>
      <point x="403" y="14" type="curve" smooth="yes"/>
      <point x="227" y="14"/>
      <point x="148" y="117"/>
      <point x="148" y="271" type="curve" smooth="yes"/>
      <point x="148" y="730" type="line"/>
      <point x="116" y="730" type="line"/>
      <point x="116" y="275" type="line" smooth="yes"/>
      <point x="116" y="109"/>
      <point x="202" y="-16"/>
    </contour>
  </outline>
</glyph>
<glyph name="Z" format="2">
  <advance width="662"/>
  <unicode hex="005A"/>
  <anchor x="354" y="0" name="bottom"/>
  <anchor x="338" y="365" name="center"/>
  <anchor x="334" y="730" name="top"/>
  <outline>
    <contour>
      <point x="84" y="0" type="line"/>
      <point x="604" y="0" type="line"/>
      <point x="604" y="30" type="line"/>
      <point x="113" y="30" type="line"/>
      <point x="127" y="10" type="line"/>
      <point x="111" y="57" type="line"/>
      <point x="103" y="28" type="line"/>
      <point x="586" y="678" type="line"/>
      <point x="586" y="730" type="line"/>
      <point x="89" y="730" type="line"/>
      <point x="89" y="700" type="line"/>
      <point x="557" y="700" type="line"/>
      <point x="543" y="720" type="line"/>
      <point x="559" y="673" type="line"/>
      <point x="567" y="702" type="line"/>
      <point x="84" y="52" type="line"/>
    </contour>
  </outline>
</glyph>
<glyph name="c" format="2">
  <advance width="600"/>
  <unicode hex="0063"/>
  <anchor x="313" y="0" name="bottom"/>
  <anchor x="317" y="520" name="top"/>
  <outline>
    <contour>
      <point x="317" y="-16" type="curve" smooth="yes"/>
      <point x="440" y="-16"/>
      <point x="538" y="59"/>
      <point x="554" y="168" type="curve"/>
      <point x="522" y="168" type="line"/>
      <point x="512" y="85"/>
      <point x="430" y="14"/>
      <point x="317" y="14" type="curve" smooth="yes"/>
      <point x="169" y="14"/>
      <point x="94" y="134"/>
      <point x="94" y="263" type="curve" smooth="yes"/>
      <point x="94" y="393"/>
      <point x="168" y="506"/>
      <point x="317" y="506" type="curve" smooth="yes"/>
      <point x="430" y="506"/>
      <point x="499" y="443"/>
      <point x="514" y="356" type="curve"/>
      <point x="546" y="356" type="line"/>
      <point x="526" y="467"/>
      <point x="440" y="536"/>
      <point x="317" y="536" type="curve" smooth="yes"/>
      <point x="148" y="536"/>
      <point x="62" y="403"/>
      <point x="62" y="266" type="curve" smooth="yes"/>
      <point x="62" y="260" type="line" smooth="yes"/>
      <point x="62" y="124"/>
      <point x="149" y="-16"/>
    </contour>
  </outline>
</glyph>
<glyph name="d" format="2">
  <advance width="674"/>
  <unicode hex="0064"/>
  <anchor x="368" y="0" name="bottom"/>
  <anchor x="484" y="639" name="center"/>
  <anchor x="548" y="730" name="top"/>
  <anchor x="568" y="534" name="topright"/>
  <outline>
    <contour>
      <point x="313" y="-16" type="curve" smooth="yes"/>
      <point x="463" y="-16"/>
      <point x="556" y="96"/>
      <point x="556" y="231" type="curve"/>
      <point x="540" y="231" type="line"/>
      <point x="540" y="0" type="line"/>
      <point x="566" y="0" type="line"/>
      <point x="566" y="730" type="line"/>
      <point x="534" y="730" type="line"/>
      <point x="534" y="346" type="line"/>
      <point x="554" y="289" type="line"/>
      <point x="554" y="416"/>
      <point x="466" y="536"/>
      <point x="313" y="536" type="curve" smooth="yes"/>
      <point x="148" y="536"/>
      <point x="62" y="393"/>
      <point x="62" y="263" type="curve" smooth="yes"/>
      <point x="62" y="257" type="line" smooth="yes"/>
      <point x="62" y="119"/>
      <point x="152" y="-16"/>
    </contour>
    <contour>
      <point x="315" y="14" type="curve" smooth="yes"/>
      <point x="175" y="14"/>
      <point x="94" y="128"/>
      <point x="94" y="260" type="curve" smooth="yes"/>
      <point x="94" y="384"/>
      <point x="171" y="506"/>
      <point x="315" y="506" type="curve" smooth="yes"/>
      <point x="451" y="506"/>
      <point x="536" y="403"/>
      <point x="536" y="287" type="curve" smooth="yes"/>
      <point x="536" y="233" type="line" smooth="yes"/>
      <point x="536" y="109"/>
      <point x="447" y="14"/>
    </contour>
  </outline>
</glyph>
<glyph name="e" format="2">
  <advance width="602"/>
  <unicode hex="0065"/>
  <anchor x="316" y="0" name="bottom"/>
  <anchor x="452" y="29" name="ogonek"/>
  <anchor x="310" y="520" name="top"/>
  <outline>
    <contour>
      <point x="316" y="-16" type="curve" smooth="yes"/>
      <point x="441" y="-16"/>
      <point x="521" y="52"/>
      <point x="542" y="146" type="curve"/>
      <point x="510" y="146" type="line"/>
      <point x="494" y="73"/>
      <point x="425" y="14"/>
      <point x="316" y="14" type="curve" smooth="yes"/>
      <point x="164" y="14"/>
      <point x="92" y="131"/>
      <point x="92" y="263" type="curve" smooth="yes"/>
      <point x="92" y="392"/>
      <point x="167" y="506"/>
      <point x="310" y="506" type="curve" smooth="yes"/>
      <point x="442" y="506"/>
      <point x="520" y="407"/>
      <point x="520" y="281" type="curve"/>
      <point x="533" y="291" type="line"/>
      <point x="79" y="291" type="line"/>
      <point x="79" y="261" type="line"/>
      <point x="550" y="261" type="line"/>
      <point x="550" y="293" type="line" smooth="yes"/>
      <point x="550" y="417"/>
      <point x="462" y="536"/>
      <point x="310" y="536" type="curve" smooth="yes"/>
      <point x="146" y="536"/>
      <point x="62" y="402"/>
      <point x="62" y="266" type="curve" smooth="yes"/>
      <point x="62" y="260" type="line" smooth="yes"/>
      <point x="62" y="121"/>
      <point x="142" y="-16"/>
    </contour>
  </outline>
</glyph>
<glyph name="h" format="2">
  <advance width="626"/>
  <unicode hex="0068"/>
  <anchor x="316" y="0" name="bottom"/>
  <anchor x="190" y="639" name="center"/>
  <anchor x="124" y="730" name="top"/>
  <outline>
    <contour>
      <point x="108" y="0" type="line"/>
      <point x="140" y="0" type="line"/>
      <point x="140" y="318" type="line" smooth="yes"/>
      <point x="140" y="428"/>
      <point x="210" y="504"/>
      <point x="322" y="504" type="curve" smooth="yes"/>
      <point x="432" y="504"/>
      <point x="492" y="429"/>
      <point x="492" y="320" type="curve" smooth="yes"/>
      <point x="492" y="0" type="line"/>
      <point x="524" y="0" type="line"/>
      <point x="524" y="312" type="line" smooth="yes"/>
      <point x="524" y="445"/>
      <point x="455" y="534"/>
      <point x="325" y="534" type="curve" smooth="yes"/>
      <point x="323" y="534" type="line" smooth="yes"/>
      <point x="191" y="534"/>
      <point x="123" y="440"/>
      <point x="123" y="312" type="curve"/>
      <point x="140" y="363" type="line"/>
      <point x="140" y="730" type="line"/>
      <point x="108" y="730" type="line"/>
    </contour>
  </outline>
</glyph>
<glyph name="t" format="2">
  <advance width="412"/>
  <unicode hex="0074"/>
  <guideline x="16" y="506" angle="90"/>
  <anchor x="234" y="0" name="bottom"/>
  <anchor x="176" y="290" name="center"/>
  <anchor x="135" y="696" name="top"/>
  <anchor x="157" y="576" name="topright"/>
  <outline>
    <contour>
      <point x="267" y="-5" type="curve" smooth="yes"/>
      <point x="356" y="-5" type="line"/>
      <point x="356" y="25" type="line"/>
      <point x="257" y="25" type="line" smooth="yes"/>
      <point x="190" y="25"/>
      <point x="151" y="63"/>
      <point x="151" y="131" type="curve" smooth="yes"/>
      <point x="151" y="696" type="line"/>
      <point x="119" y="696" type="line"/>
      <point x="119" y="139" type="line" smooth="yes"/>
      <point x="119" y="32"/>
      <point x="178" y="-5"/>
    </contour>
    <contour>
      <point x="16" y="492" type="line"/>
      <point x="356" y="492" type="line"/>
      <point x="356" y="520" type="line"/>
      <point x="16" y="520" type="line"/>
    </contour>
  </outline>
</glyph>
<glyph name="u" format="2">
  <advance width="604"/>
  <unicode hex="0075"/>
  <anchor x="494" y="10" name="ogonek"/>
  <anchor x="294" y="520" name="top"/>
  <outline>
    <contour>
      <point x="285" y="-14" type="curve" smooth="yes"/>
      <point x="287" y="-14" type="line" smooth="yes"/>
      <point x="416" y="-14"/>
      <point x="480" y="80"/>
      <point x="480" y="204" type="curve"/>
      <point x="468" y="204" type="line"/>
      <point x="468" y="0" type="line"/>
      <point x="494" y="0" type="line"/>
      <point x="494" y="520" type="line"/>
      <point x="462" y="520" type="line"/>
      <point x="462" y="200" type="line" smooth="yes"/>
      <point x="462" y="92"/>
      <point x="397" y="16"/>
      <point x="288" y="16" type="curve" smooth="yes"/>
      <point x="181" y="16"/>
      <point x="126" y="91"/>
      <point x="126" y="196" type="curve" smooth="yes"/>
      <point x="126" y="520" type="line"/>
      <point x="94" y="520" type="line"/>
      <point x="94" y="204" type="line" smooth="yes"/>
      <point x="94" y="75"/>
      <point x="158" y="-14"/>
    </contour>
  </outline>
</glyph>
<glyph name="z" format="2">
  <advance width="478"/>
  <unicode hex="007A"/>
  <anchor x="254" y="0" name="bottom"/>
  <anchor x="246" y="267" name="center"/>
  <anchor x="244" y="520" name="top"/>
  <outline>
    <contour>
      <point x="63" y="0" type="line"/>
      <point x="436" y="0" type="line"/>
      <point x="436" y="28" type="line"/>
      <point x="92" y="28" type="line"/>
      <point x="99" y="24" type="line"/>
      <point x="89" y="41" type="line"/>
      <point x="80" y="23" type="line"/>
      <point x="421" y="472" type="line"/>
      <point x="421" y="520" type="line"/>
      <point x="62" y="520" type="line"/>
      <point x="62" y="492" type="line"/>
      <point x="392" y="492" type="line"/>
      <point x="385" y="496" type="line"/>
      <point x="395" y="479" type="line"/>
      <point x="404" y="497" type="line"/>
      <point x="63" y="48" type="line"/>
    </contour>
  </outline>
</glyph>
<glyph name="braceleft" format="2">
  <advance width="356"/>
  <unicode hex="007B"/>
  <outline>
    <contour>
      <point x="284" y="-182" type="curve" smooth="yes"/>
      <point x="298" y="-182" type="line"/>
      <point x="298" y="-154" type="line"/>
      <point x="284" y="-154" type="line" smooth="yes"/>
      <point x="206" y="-154"/>
      <point x="165" y="-115"/>
      <point x="165" y="-14" type="curve" smooth="yes"/>
      <point x="165" y="185" type="line" smooth="yes"/>
      <point x="165" y="247"/>
      <point x="138" y="283"/>
      <point x="94" y="293" type="curve"/>
      <point x="94" y="301" type="line"/>
      <point x="138" y="311"/>
      <point x="165" y="347"/>
      <point x="165" y="409" type="curve" smooth="yes"/>
      <point x="165" y="608" type="line" smooth="yes"/>
      <point x="165" y="709"/>
      <point x="206" y="748"/>
      <point x="284" y="748" type="curve" smooth="yes"/>
      <point x="298" y="748" type="line"/>
      <point x="298" y="776" type="line"/>
      <point x="284" y="776" type="line" smooth="yes"/>
      <point x="192" y="776"/>
      <point x="133" y="727"/>
      <point x="133" y="604" type="curve" smooth="yes"/>
      <point x="133" y="397" type="line" smooth="yes"/>
      <point x="133" y="344"/>
      <point x="103" y="323"/>
      <point x="72" y="323" type="curve"/>
      <point x="72" y="271" type="line"/>
      <point x="103" y="271"/>
      <point x="133" y="250"/>
      <point x="133" y="197" type="curve" smooth="yes"/>
      <point x="133" y="-10" type="line" smooth="yes"/>
      <point x="133" y="-133"/>
      <point x="192" y="-182"/>
    </contour>
  </outline>
</glyph>
<glyph name="brokenbar" format="2">
  <advance width="370"/>
  <unicode hex="00A6"/>
  <outline>
    <contour>
      <point x="170" y="373" type="line"/>
      <point x="200" y="373" type="line"/>
      <point x="200" y="730" type="line"/>
      <point x="170" y="730" type="line"/>
    </contour>
    <contour>
      <point x="170" y="-200" type="line"/>
      <point x="200" y="-200" type="line"/>
      <point x="200" y="139" type="line"/>
      <point x="170" y="139" type="line"/>
    </contour>
  </outline>
</glyph>
<glyph name="copyright" format="2">
  <advance width="732"/>
  <unicode hex="00A9"/>
  <outline>
    <contour>
      <point x="366" y="132" type="curve" smooth="yes"/>
      <point x="554" y="132"/>
      <point x="670" y="267"/>
      <point x="670" y="435" type="curve" smooth="yes"/>
      <point x="670" y="445" type="line" smooth="yes"/>
      <point x="670" y="613"/>
      <point x="554" y="748"/>
      <point x="366" y="748" type="curve" smooth="yes"/>
      <point x="178" y="748"/>
      <point x="62" y="613"/>
      <point x="62" y="445" type="curve" smooth="yes"/>
      <point x="62" y="435" type="line" smooth="yes"/>
      <point x="62" y="267"/>
      <point x="178" y="132"/>
    </contour>
    <contour>
      <point x="366" y="160" type="curve" smooth="yes"/>
      <point x="190" y="160"/>
      <point x="92" y="285"/>
      <point x="92" y="440" type="curve" smooth="yes"/>
      <point x="92" y="595"/>
      <point x="190" y="720"/>
      <point x="366" y="720" type="curve" smooth="yes"/>
      <point x="542" y="720"/>
      <point x="640" y="595"/>
      <point x="640" y="440" type="curve" smooth="yes"/>
      <point x="640" y="285"/>
      <point x="542" y="160"/>
    </contour>
    <contour>
      <point x="371" y="264" type="curve" smooth="yes"/>
      <point x="442" y="264"/>
      <point x="500" y="310"/>
      <point x="508" y="378" type="curve"/>
      <point x="478" y="378" type="line"/>
      <point x="472" y="328"/>
      <point x="432" y="292"/>
      <point x="371" y="292" type="curve" smooth="yes"/>
      <point x="287" y="292"/>
      <point x="248" y="361"/>
      <point x="248" y="443" type="curve" smooth="yes"/>
      <point x="248" y="529"/>
      <point x="289" y="587"/>
      <point x="371" y="587" type="curve" smooth="yes"/>
      <point x="436" y="587"/>
      <point x="470" y="550"/>
      <point x="476" y="496" type="curve"/>
      <point x="506" y="496" type="line"/>
      <point x="498" y="570"/>
      <point x="444" y="616"/>
      <point x="371" y="616" type="curve" smooth="yes"/>
      <point x="275" y="616"/>
      <point x="218" y="541"/>
      <point x="218" y="448" type="curve" smooth="yes"/>
      <point x="218" y="438" type="line" smooth="yes"/>
      <point x="218" y="349"/>
      <point x="273" y="264"/>
    </contour>
  </outline>
</glyph>
<glyph name="registered" format="2">
  <advance width="678"/>
  <unicode hex="00AE"/>
  <outline>
    <contour>
      <point x="339" y="184" type="curve" smooth="yes"/>
      <point x="519" y="184"/>
      <point x="624" y="315"/>
      <point x="624" y="461" type="curve" smooth="yes"/>
      <point x="624" y="471" type="line" smooth="yes"/>
      <point x="624" y="617"/>
      <point x="519" y="748"/>
      <point x="339" y="748" type="curve" smooth="yes"/>
      <point x="159" y="748"/>
      <point x="54" y="617"/>
      <point x="54" y="471" type="curve" smooth="yes"/>
      <point x="54" y="461" type="line" smooth="yes"/>
      <point x="54" y="315"/>
      <point x="159" y="184"/>
    </contour>
    <contour>
      <point x="339" y="212" type="curve" smooth="yes"/>
      <point x="171" y="212"/>
      <point x="84" y="333"/>
      <point x="84" y="466" type="curve" smooth="yes"/>
      <point x="84" y="599"/>
      <point x="171" y="720"/>
      <point x="339" y="720" type="curve" smooth="yes"/>
      <point x="507" y="720"/>
      <point x="594" y="599"/>
      <point x="594" y="466" type="curve" smooth="yes"/>
      <point x="594" y="333"/>
      <point x="507" y="212"/>
    </contour>
    <contour>
      <point x="246" y="320" type="line"/>
      <point x="276" y="320" type="line"/>
      <point x="276" y="621" type="line"/>
      <point x="246" y="621" type="line"/>
    </contour>
    <contour>
      <point x="429" y="320" type="line"/>
      <point x="465" y="320" type="line"/>
      <point x="358" y="452" type="line"/>
      <point x="322" y="452" type="line"/>
    </contour>
    <contour>
      <point x="261" y="439" type="line"/>
      <point x="343" y="439" type="line" smooth="yes"/>
      <point x="409" y="439"/>
      <point x="445" y="474"/>
      <point x="445" y="530" type="curve" smooth="yes"/>
      <point x="445" y="588"/>
      <point x="409" y="621"/>
      <point x="343" y="621" type="curve" smooth="yes"/>
      <point x="261" y="621" type="line"/>
      <point x="261" y="593" type="line"/>
      <point x="343" y="593" type="line" smooth="yes"/>
      <point x="395" y="593"/>
      <point x="415" y="574"/>
      <point x="415" y="530" type="curve" smooth="yes"/>
      <point x="415" y="488"/>
      <point x="395" y="467"/>
      <point x="343" y="467" type="curve" smooth="yes"/>
      <point x="261" y="467" type="line"/>
    </contour>
  </outline>
</glyph>
<glyph name="Thorn" format="2">
  <advance width="592"/>
  <unicode hex="00DE"/>
  <outline>
    <contour>
      <point x="143" y="156" type="line"/>
      <point x="308" y="156" type="line" smooth="yes"/>
      <point x="471" y="156"/>
      <point x="538" y="256"/>
      <point x="538" y="367" type="curve" smooth="yes"/>
      <point x="538" y="377" type="line" smooth="yes"/>
      <point x="538" y="488"/>
      <point x="471" y="588"/>
      <point x="308" y="588" type="curve" smooth="yes"/>
      <point x="143" y="588" type="line"/>
      <point x="143" y="558" type="line"/>
      <point x="310" y="558" type="line" smooth="yes"/>
      <point x="451" y="558"/>
      <point x="506" y="475"/>
      <point x="506" y="372" type="curve" smooth="yes"/>
      <point x="506" y="269"/>
      <point x="451" y="186"/>
      <point x="310" y="186" type="curve" smooth="yes"/>
      <point x="143" y="186" type="line"/>
    </contour>
    <contour>
      <point x="130" y="0" type="line"/>
      <point x="162" y="0" type="line"/>
      <point x="162" y="732" type="line"/>
      <point x="130" y="732" type="line"/>
    </contour>
  </outline>
</glyph>
<glyph name="germandbls" format="2">
  <advance width="584"/>
  <unicode hex="00DF"/>
  <outline>
    <contour>
      <point x="312" y="-11" type="curve" smooth="yes"/>
      <point x="456" y="-11"/>
      <point x="530" y="76"/>
      <point x="530" y="188" type="curve" smooth="yes"/>
      <point x="530" y="330"/>
      <point x="425" y="409"/>
      <point x="283" y="409" type="curve"/>
      <point x="283" y="391" type="line"/>
      <point x="386" y="391"/>
      <point x="456" y="462"/>
      <point x="456" y="563" type="curve" smooth="yes"/>
      <point x="456" y="657"/>
      <point x="396" y="740"/>
      <point x="289" y="740" type="curve" smooth="yes"/>
      <point x="285" y="740" type="line" smooth="yes"/>
      <point x="175" y="740"/>
      <point x="110" y="656"/>
      <point x="110" y="517" type="curve" smooth="yes"/>
      <point x="110" y="0" type="line"/>
      <point x="142" y="0" type="line"/>
      <point x="142" y="523" type="line" smooth="yes"/>
      <point x="142" y="628"/>
      <point x="188" y="710"/>
      <point x="287" y="710" type="curve" smooth="yes"/>
      <point x="382" y="710"/>
      <point x="424" y="635"/>
      <point x="424" y="563" type="curve" smooth="yes"/>
      <point x="424" y="490"/>
      <point x="378" y="415"/>
      <point x="283" y="415" type="curve" smooth="yes"/>
      <point x="244" y="415" type="line"/>
      <point x="244" y="385" type="line"/>
      <point x="285" y="385" type="line" smooth="yes"/>
      <point x="403" y="385"/>
      <point x="498" y="314"/>
      <point x="498" y="190" type="curve" smooth="yes"/>
      <point x="498" y="92"/>
      <point x="438" y="19"/>
      <point x="312" y="19" type="curve" smooth="yes"/>
      <point x="281" y="19"/>
      <point x="241" y="24"/>
      <point x="212" y="30" type="curve"/>
      <point x="212" y="0" type="line"/>
      <point x="239" y="-6"/>
      <point x="279" y="-11"/>
    </contour>
    <contour>
      <point x="50" y="484" type="line"/>
      <point x="130" y="484" type="line"/>
      <point x="130" y="514" type="line"/>
      <point x="50" y="514" type="line"/>
    </contour>
  </outline>
</glyph>
<glyph name="divide" format="2">
  <advance width="584"/>
  <unicode hex="00F7"/>
  <outline>
    <contour>
      <point x="86" y="331" type="line"/>
      <point x="498" y="331" type="line"/>
      <point x="498" y="359" type="line"/>
      <point x="86" y="359" type="line"/>
    </contour>
    <contour>
      <point x="266" y="127" type="line"/>
      <point x="318" y="127" type="line"/>
      <point x="318" y="185" type="line"/>
      <point x="266" y="185" type="line"/>
    </contour>
    <contour>
      <point x="266" y="505" type="line"/>
      <point x="318" y="505" type="line"/>
      <point x="318" y="563" type="line"/>
      <point x="266" y="563" type="line"/>
    </contour>
  </outline>
</glyph>
<glyph name="Hbar" format="2">
  <advance width="810"/>
  <unicode hex="0126"/>
  <anchor x="405" y="0" name="bottom"/>
  <anchor x="405" y="606" name="center"/>
  <anchor x="405" y="730" name="top"/>
  <outline>
    <contour>
      <point x="58" y="592" type="line"/>
      <point x="752" y="592" type="line"/>
      <point x="752" y="620" type="line"/>
      <point x="58" y="620" type="line"/>
    </contour>
    <component base="H"/>
  </outline>
</glyph>
<glyph name="idotless" format="2">
  <advance width="280"/>
  <unicode hex="0131"/>
  <anchor x="154" y="0" name="bottom"/>
  <anchor x="170" y="10" name="ogonek"/>
  <anchor x="113" y="520" name="top"/>
  <outline>
    <contour>
      <point x="138" y="0" type="line"/>
      <point x="170" y="0" type="line"/>
      <point x="170" y="520" type="line"/>
      <point x="138" y="520" type="line"/>
    </contour>
    <contour>
      <point x="48" y="490" type="line"/>
      <point x="170" y="490" type="line"/>
      <point x="170" y="520" type="line"/>
      <point x="48" y="520" type="line"/>
    </contour>
  </outline>
</glyph>
<glyph name="commaturnedabovecomb" format="2">
  <unicode hex="0312"/>
  <anchor x="44" y="520" name="_top"/>
  <anchor x="42" y="832" name="top"/>
  <outline>
    <contour>
      <point x="49" y="608" type="curve" smooth="yes"/>
      <point x="73" y="608"/>
      <point x="86" y="624"/>
      <point x="86" y="645" type="curve" smooth="yes"/>
      <point x="86" y="668"/>
      <point x="72" y="682"/>
      <point x="52" y="682" type="curve" smooth="yes"/>
      <point x="32" y="682"/>
      <point x="22" y="669"/>
      <point x="18" y="654" type="curve"/>
      <point x="26" y="654" type="line"/>
      <point x="26" y="694" type="line" smooth="yes"/>
      <point x="26" y="761"/>
      <point x="48" y="786"/>
      <point x="90" y="786" type="curve" smooth="yes"/>
      <point x="94" y="786" type="line"/>
      <point x="94" y="810" type="line"/>
      <point x="90" y="810" type="line" smooth="yes"/>
      <point x="34" y="810"/>
      <point x="0" y="777"/>
      <point x="0" y="692" type="curve" smooth="yes"/>
      <point x="0" y="688" type="line" smooth="yes"/>
      <point x="0" y="632"/>
      <point x="19" y="608"/>
    </contour>
  </outline>
</glyph>
<glyph name="strokelongcomb" format="2">
  <unicode hex="0336"/>
  <anchor x="150" y="359" name="_center"/>
  <outline>
    <contour>
      <point x="-24" y="344" type="line"/>
      <point x="324" y="344" type="line"/>
      <point x="324" y="374" type="line"/>
      <point x="-24" y="374" type="line"/>
    </contour>
  </outline>
</glyph>
<glyph name="minute" format="2">
  <advance width="258"/>
  <unicode hex="2032"/>
  <outline>
    <contour>
      <point x="92" y="484" type="line"/>
      <point x="122" y="484" type="line"/>
      <point x="166" y="730" type="line"/>
      <point x="136" y="730" type="line"/>
    </contour>
  </outline>
</glyph>
<glyph name="sora" format="2">
  <advance width="810"/>
  <unicode hex="E000"/>
  <outline>
    <contour>
      <point x="69" y="-8" type="line"/>
      <point x="403" y="501" type="line"/>
      <point x="381" y="496" type="line"/>
      <point x="433" y="496" type="line"/>
      <point x="407" y="501" type="line"/>
      <point x="739" y="-8" type="line"/>
      <point x="768" y="9" type="line"/>
      <point x="435" y="516" type="line"/>
      <point x="376" y="516" type="line"/>
      <point x="42" y="10" type="line"/>
    </contour>
    <contour>
      <point x="63" y="516" type="line"/>
      <point x="747" y="516" type="line"/>
      <point x="747" y="544" type="line"/>
      <point x="63" y="544" type="line"/>
    </contour>
    <contour>
      <point x="390" y="534" type="line"/>
      <point x="420" y="534" type="line"/>
      <point x="420" y="712" type="line"/>
      <point x="390" y="712" type="line"/>
    </contour>
    <contour>
      <point x="63" y="702" type="line"/>
      <point x="747" y="702" type="line"/>
      <point x="747" y="730" type="line"/>
      <point x="63" y="730" type="line"/>
    </contour>
  </outline>
</glyph>
<glyph name="fl" format="2">
  <advance width="618"/>
  <unicode hex="FB02"/>
  <outline>
    <contour>
      <point x="124" y="0" type="line"/>
      <point x="156" y="0" type="line"/>
      <point x="156" y="600" type="line" smooth="yes"/>
      <point x="156" y="664"/>
      <point x="192" y="700"/>
      <point x="260" y="700" type="curve" smooth="yes"/>
      <point x="334" y="700" type="line"/>
      <point x="334" y="730" type="line"/>
      <point x="270" y="730" type="line" smooth="yes"/>
      <point x="170" y="730"/>
      <point x="124" y="684"/>
      <point x="124" y="588" type="curve" smooth="yes"/>
    </contour>
    <contour>
      <point x="40" y="490" type="line"/>
      <point x="340" y="490" type="line"/>
      <point x="340" y="518" type="line"/>
      <point x="40" y="518" type="line"/>
    </contour>
    <contour>
      <point x="478" y="0" type="line"/>
      <point x="510" y="0" type="line"/>
      <point x="510" y="730" type="line"/>
      <point x="478" y="730" type="line"/>
    </contour>
    <contour>
      <point x="402" y="700" type="line"/>
      <point x="510" y="700" type="line"/>
      <point x="510" y="730" type="line"/>
      <point x="402" y="730" type="line"/>
    </contour>
  </outline>
</glyph>
<glyph name="I.salt" format="2">
  <advance width="444"/>
  <anchor x="222" y="0" name="bottom"/>
  <anchor x="254" y="10" name="ogonek"/>
  <anchor x="222" y="730" name="top"/>
  <outline>
    <contour>
      <point x="206" y="10" type="line"/>
      <point x="238" y="10" type="line"/>
      <point x="238" y="720" type="line"/>
      <point x="206" y="720" type="line"/>
    </contour>
    <contour>
      <point x="114" y="0" type="line"/>
      <point x="330" y="0" type="line"/>
      <point x="330" y="30" type="line"/>
      <point x="114" y="30" type="line"/>
    </contour>
    <contour>
      <point x="114" y="700" type="line"/>
      <point x="330" y="700" type="line"/>
      <point x="330" y="730" type="line"/>
      <point x="114" y="730" type="line"/>
    </contour>
  </outline>
</glyph>
<glyph name="circumflexcomb.case" format="2">
  <anchor x="137" y="730" name="_top"/>
  <anchor x="137" y="940" name="top"/>
  <outline>
    <contour>
      <point x="0" y="802" type="line"/>
      <point x="33" y="802" type="line"/>
      <point x="126" y="918" type="line"/>
      <point x="146" y="918" type="line"/>
      <point x="239" y="802" type="line"/>
      <point x="273" y="802" type="line"/>
      <point x="162" y="940" type="line"/>
      <point x="111" y="940" type="line"/>
    </contour>
  </outline>
</glyph>
<glyph name="eight.tnum" format="2">
  <advance width="626"/>
  <outline>
    <contour>
      <point x="313" y="-16" type="curve" smooth="yes"/>
      <point x="470" y="-16"/>
      <point x="558" y="83"/>
      <point x="558" y="195" type="curve" smooth="yes"/>
      <point x="558" y="303"/>
      <point x="478" y="374"/>
      <point x="401" y="387" type="curve"/>
      <point x="401" y="397" type="line"/>
      <point x="464" y="416"/>
      <point x="531" y="466"/>
      <point x="531" y="564" type="curve" smooth="yes"/>
      <point x="531" y="672"/>
      <point x="446" y="748"/>
      <point x="313" y="748" type="curve" smooth="yes"/>
      <point x="180" y="748"/>
      <point x="95" y="672"/>
      <point x="95" y="564" type="curve" smooth="yes"/>
      <point x="95" y="466"/>
      <point x="163" y="416"/>
      <point x="225" y="397" type="curve"/>
      <point x="225" y="387" type="line"/>
      <point x="149" y="374"/>
      <point x="68" y="303"/>
      <point x="68" y="195" type="curve" smooth="yes"/>
      <point x="68" y="83"/>
      <point x="156" y="-16"/>
    </contour>
    <contour>
      <point x="313" y="14" type="curve" smooth="yes"/>
      <point x="176" y="14"/>
      <point x="100" y="96"/>
      <point x="100" y="195" type="curve" smooth="yes"/>
      <point x="100" y="297"/>
      <point x="177" y="378"/>
      <point x="313" y="378" type="curve" smooth="yes"/>
      <point x="449" y="378"/>
      <point x="526" y="297"/>
      <point x="526" y="195" type="curve" smooth="yes"/>
      <point x="526" y="96"/>
      <point x="450" y="14"/>
    </contour>
    <contour>
      <point x="313" y="406" type="curve" smooth="yes"/>
      <point x="203" y="406"/>
      <point x="127" y="465"/>
      <point x="127" y="563" type="curve" smooth="yes"/>
      <point x="127" y="658"/>
      <point x="199" y="718"/>
      <point x="313" y="718" type="curve" smooth="yes"/>
      <point x="427" y="718"/>
      <point x="499" y="658"/>
      <point x="499" y="563" type="curve" smooth="yes"/>
      <point x="499" y="465"/>
      <point x="423" y="406"/>
    </contour>
  </outline>
</glyph>
<glyph name="f_j.salt" format="2">
  <advance width="632"/>
  <outline>
    <contour>
      <point x="130" y="0" type="line"/>
      <point x="162" y="0" type="line"/>
      <point x="162" y="634" type="line" smooth="yes"/>
      <point x="162" y="682"/>
      <point x="188" y="712"/>
      <point x="238" y="712" type="curve" smooth="yes"/>
      <point x="282" y="712"/>
      <point x="314" y="682"/>
      <point x="314" y="634" type="curve"/>
      <point x="344" y="634" type="line"/>
      <point x="344" y="691"/>
      <point x="304" y="742"/>
      <point x="238" y="742" type="curve" smooth="yes"/>
      <point x="166" y="742"/>
      <point x="130" y="691"/>
      <point x="130" y="630" type="curve" smooth="yes"/>
    </contour>
    <contour>
      <point x="338" y="-202" type="line"/>
      <point x="395" y="-202" type="line" smooth="yes"/>
      <point x="486" y="-202"/>
      <point x="522" y="-160"/>
      <point x="522" y="-56" type="curve" smooth="yes"/>
      <point x="522" y="520" type="line"/>
      <point x="490" y="520" type="line"/>
      <point x="490" y="-70" type="line" smooth="yes"/>
      <point x="490" y="-138"/>
      <point x="462" y="-172"/>
      <point x="407" y="-172" type="curve" smooth="yes"/>
      <point x="338" y="-172" type="line"/>
    </contour>
    <contour>
      <point x="44" y="492" type="line"/>
      <point x="332" y="492" type="line"/>
      <point x="332" y="520" type="line"/>
      <point x="44" y="520" type="line"/>
    </contour>
    <contour>
      <point x="404" y="490" type="line"/>
      <point x="522" y="490" type="line"/>
      <point x="522" y="520" type="line"/>
      <point x="404" y="520" type="line"/>
    </contour>
    <contour>
      <point x="484" y="652" type="curve" smooth="yes"/>
      <point x="506" y="652"/>
      <point x="518" y="665"/>
      <point x="518" y="685" type="curve" smooth="yes"/>
      <point x="518" y="704"/>
      <point x="506" y="718"/>
      <point x="484" y="718" type="curve" smooth="yes"/>
      <point x="462" y="718"/>
      <point x="450" y="704"/>
      <point x="450" y="685" type="curve" smooth="yes"/>
      <point x="450" y="665"/>
      <point x="462" y="652"/>
    </contour>
  </outline>
</glyph>
<glyph name="one.tnum" format="2">
  <advance width="626"/>
  <outline>
    <contour>
      <point x="317" y="0" type="line"/>
      <point x="349" y="0" type="line"/>
      <point x="349" y="730" type="line"/>
      <point x="160" y="730" type="line"/>
      <point x="160" y="700" type="line"/>
      <point x="327" y="700" type="line"/>
      <point x="317" y="710" type="line"/>
    </contour>
    <contour>
      <point x="161" y="0" type="line"/>
      <point x="506" y="0" type="line"/>
      <point x="506" y="30" type="line"/>
      <point x="161" y="30" type="line"/>
    </contour>
  </outline>
</glyph>
<glyph name="sora.tnum" format="2">
  <advance width="626"/>
  <outline>
    <contour>
      <point x="37" y="-8" type="line"/>
      <point x="312" y="501" type="line"/>
      <point x="290" y="496" type="line"/>
      <point x="340" y="496" type="line"/>
      <point x="316" y="501" type="line"/>
      <point x="589" y="-8" type="line"/>
      <point x="616" y="7" type="line"/>
      <point x="342" y="516" type="line"/>
      <point x="285" y="516" type="line"/>
      <point x="10" y="7" type="line"/>
    </contour>
    <contour>
      <point x="31" y="516" type="line"/>
      <point x="595" y="516" type="line"/>
      <point x="595" y="544" type="line"/>
      <point x="31" y="544" type="line"/>
    </contour>
    <contour>
      <point x="298" y="534" type="line"/>
      <point x="328" y="534" type="line"/>
      <point x="328" y="712" type="line"/>
      <point x="298" y="712" type="line"/>
    </contour>
    <contour>
      <point x="31" y="702" type="line"/>
      <point x="595" y="702" type="line"/>
      <point x="595" y="730" type="line"/>
      <point x="31" y="730" type="line"/>
    </contour>
  </outline>
</glyph>
<glyph name="t.salt" format="2">
  <advance width="452"/>
  <guideline x="26" y="506" angle="90"/>
  <anchor x="264" y="0" name="bottom"/>
  <anchor x="186" y="289" name="center"/>
  <anchor x="277" y="407" name="top"/>
  <anchor x="164" y="576" name="topright"/>
  <outline>
    <contour>
      <point x="266" y="-14" type="curve" smooth="yes"/>
      <point x="350" y="-14"/>
      <point x="406" y="38"/>
      <point x="406" y="132" type="curve"/>
      <point x="376" y="132" type="line"/>
      <point x="376" y="50"/>
      <point x="329" y="16"/>
      <point x="266" y="16" type="curve" smooth="yes"/>
      <point x="205" y="16"/>
      <point x="158" y="50"/>
      <point x="158" y="132" type="curve" smooth="yes"/>
      <point x="158" y="502" type="line"/>
      <point x="126" y="502" type="line"/>
      <point x="126" y="136" type="line" smooth="yes"/>
      <point x="126" y="38"/>
      <point x="184" y="-14"/>
    </contour>
    <contour>
      <point x="26" y="492" type="line"/>
      <point x="376" y="492" type="line"/>
      <point x="376" y="520" type="line"/>
      <point x="26" y="520" type="line"/>
    </contour>
    <contour>
      <point x="126" y="510" type="line"/>
      <point x="158" y="510" type="line"/>
      <point x="158" y="690" type="line"/>
      <point x="126" y="690" type="line"/>
    </contour>
  </outline>
</glyph>
<glyph name="three.tnum" format="2">
  <advance width="626"/>
  <outline>
    <contour>
      <point x="314" y="-16" type="curve" smooth="yes"/>
      <point x="460" y="-16"/>
      <point x="546" y="84"/>
      <point x="546" y="202" type="curve" smooth="yes"/>
      <point x="546" y="214" type="line" smooth="yes"/>
      <point x="546" y="337"/>
      <point x="460" y="436"/>
      <point x="318" y="436" type="curve" smooth="yes"/>
      <point x="272" y="436"/>
      <point x="237" y="425"/>
      <point x="210" y="407" type="curve"/>
      <point x="217" y="404" type="line"/>
      <point x="525" y="672" type="line"/>
      <point x="525" y="730" type="line"/>
      <point x="110" y="730" type="line"/>
      <point x="110" y="700" type="line"/>
      <point x="493" y="700" type="line"/>
      <point x="499" y="688" type="line"/>
      <point x="188" y="418" type="line"/>
      <point x="213" y="378" type="line"/>
      <point x="239" y="395"/>
      <point x="270" y="406"/>
      <point x="316" y="406" type="curve" smooth="yes"/>
      <point x="440" y="406"/>
      <point x="514" y="328"/>
      <point x="514" y="208" type="curve" smooth="yes"/>
      <point x="514" y="93"/>
      <point x="436" y="14"/>
      <point x="314" y="14" type="curve" smooth="yes"/>
      <point x="188" y="14"/>
      <point x="114" y="93"/>
      <point x="114" y="213" type="curve"/>
      <point x="82" y="213" type="line"/>
      <point x="82" y="82"/>
      <point x="167" y="-16"/>
    </contour>
  </outline>
</glyph>
